<?xml version="1.0" standalone="no"?>
<!DOCTYPE svg PUBLIC "-//W3C//DTD SVG 1.1//EN" "http://www.w3.org/Graphics/SVG/1.1/DTD/svg11.dtd">
<svg xmlns="http://www.w3.org/2000/svg">
<metadata>Copyright (C) 2017 by original authors @ fontello.com</metadata>
<defs>
<font id="udimi" horiz-adv-x="1000" >
<font-face font-family="udimi" font-weight="400" font-stretch="normal" units-per-em="1000" ascent="850" descent="-150" />
<missing-glyph horiz-adv-x="1000" />
<glyph glyph-name="small-calendar" unicode="&#xe800;" d="M102-115c-31 5-55 28-63 59-2 9-3 24-3 361 0 336 1 353 3 363 6 25 25 46 50 55 8 3 10 3 79 4l71 1 1 33c1 31 1 33 4 39 10 16 31 19 45 6 8-6 8-9 9-45l0-33 87 0 87 0 0 33c1 32 1 33 4 39 5 7 14 13 22 14 12 2 25-5 30-17 2-5 3-10 3-38l1-31 86 0 86 0 1 33c1 36 1 37 10 45 4 5 14 9 20 9 5 0 14-4 19-9 8-7 9-9 9-44 0-23 0-32 1-33 1-2 18-2 68-2 43 0 69-1 74-2 28-5 52-30 59-59 1-6 2-77 2-361 0-335 0-354-3-362-6-24-22-43-44-52-17-7 3-7-419-7-216 0-396 1-399 1z m797 61c3 1 6 4 7 7 2 5 2 30 2 355l0 350-4 4c-2 2-6 5-8 6-2 1-24 1-68 1l-65 0 0-34c-1-31-1-34-4-39-9-15-33-18-45-5-8 9-9 13-9 47l0 31-87 0-86 0-1-32c0-31 0-32-4-39-2-4-6-8-9-11-5-3-7-4-17-4-9 0-11 1-15 4-3 2-7 7-9 10l-4 5-1 33 0 34-87 0-87 0 0-34c-1-33-1-34-4-39-9-15-30-18-43-7-10 9-10 9-11 47l-1 33-64 0c-74 0-72 1-78-11l-3-6 0-346c0-242 1-347 2-350 1-5 6-10 10-12 1 0 180-1 396-1 382 0 393 0 397 3z m-658 143c-1 1-1 21-1 44l1 42 57 0c44 0 57 0 58-1 1-2 1-81 0-84-1-2-7-2-58-2-44 0-57 0-57 1z m203 0c0 1 0 21 0 44l0 42 58 0 58 0 0-43 0-44-58 0c-45 0-57 0-58 1z m204-1c-1 1-1 21-1 44l0 44 58 0 58 0 0-44 0-44-57 0c-32 0-58 0-58 0z m-408 189l0 43 58 0 58-1 0-42 0-43-58 0-58-1 0 44z m204 0l0 43 58 0 58 0 0-43 0-43-58 0-58-1 0 44z m203 0l0 43 58 0 58 0 0-43 0-44-58 0-58 0 0 44z m-407 145l0 44 58-1 58 0 0-43 0-42-58-1-58 0 0 43z m204 0l0 44 58-1 58 0 0-43 0-42-58-1-58 0 0 43z m203 0l0 44 58 0 58 0 0-44 0-43-58 0-58 0 0 43z" horiz-adv-x="1000" />

<glyph glyph-name="fire" unicode="&#xe801;" d="M310-150c-66 139-31 218 20 293 57 82 71 163 71 163s44-57 26-147c78 87 93 225 81 278 176-123 252-389 150-587 540 305 134 762 64 813 23-51 28-138-20-180-80 305-279 367-279 367 24-157-85-329-190-458-4 63-8 106-41 166-7-114-94-206-118-321-32-154 24-267 236-387z" horiz-adv-x="1000" />

<glyph glyph-name="dollar" unicode="&#xe802;" d="M460-126c-78 8-153 34-219 77-73 49-137 124-172 204-43 97-53 205-28 308 16 66 48 130 90 182 27 35 73 77 110 101 173 115 400 104 561-26 82-66 139-156 164-257 15-63 18-130 7-194-21-130-99-247-211-320-64-42-139-68-216-75-21-1-66-1-86 0z m58 184c4 4 7 15 7 30 0 15-2 13 20 16 15 3 37 10 51 17 36 18 62 48 74 88 4 13 4 17 4 40 0 28-1 37-11 57-10 22-25 39-44 53-16 10-39 19-83 32l-11 3 0 68c0 56 0 68 2 68 4 0 21-9 28-15 8-7 17-21 22-35 7-24 15-32 32-36 23-6 45 7 50 30 4 18-7 46-26 70-22 28-49 42-91 49l-16 3-1 18c-1 18-1 18-6 23-10 11-28 7-32-6-2-3-3-13-3-21l0-15-5 0c-8 0-36-6-50-11-40-15-68-44-80-84-3-11-3-16-3-39 0-30 2-40 11-59 16-33 45-54 102-73l25-8 0-76 0-76-4 1c-11 2-26 11-35 21-12 12-17 20-26 47-10 26-12 30-22 36-6 3-10 4-20 5-11 1-14 0-21-4-10-4-18-13-22-23-6-18 2-53 18-77 25-38 66-63 117-72l15-2 0-13c0-19 4-29 12-32 5-3 19-1 22 2z m7 179l0 72 5-1c3-1 13-5 22-9 21-11 34-22 39-37 3-8 4-12 3-26 0-14-1-17-6-27-7-15-19-27-36-35-7-3-17-7-20-7l-7-1 0 71z m-61 178c-30 15-39 30-38 59 1 23 9 34 28 46 6 3 27 12 29 12 1 0 1-28 1-62 0-49 0-63-2-63-1 0-9 4-18 8z" horiz-adv-x="1000" />

<glyph glyph-name="megaphone" unicode="&#xe803;" d="M1000 399v-98c0-42-34-76-75-76h-29v-212c0-17-13-33-30-35-2 0-3 0-5 0-15 0-28 9-33 24-2 5-31 65-168 145-104 61-213 76-268 79-10-25-34-42-62-42h-9l19-114c3-15-1-29-10-40-10-11-23-18-38-18h-58c-24 0-44 18-48 41l-23 131h-34c-36 0-66 29-66 65v1h-8c-30 0-55 25-55 56v88c0 31 25 56 55 56h8v1c0 36 30 65 66 65h201c28 0 52-17 61-42 56 4 165 18 269 79 137 80 166 140 168 145 5 17 21 26 38 24 17-2 30-18 30-35v-212h29c41 0 75-34 75-76z" horiz-adv-x="1000" />

<glyph glyph-name="sun-rising" unicode="&#xe804;" d="M187-4c-19 4-34 15-43 33-4 10-5 11-5 25 0 15 1 16 5 25 7 13 17 24 29 29l10 5 311 0c286 1 313 0 319-2 35-11 52-50 37-82-9-18-25-30-46-34-15-2-605-2-617 1z m-27 240c0 6 18 44 31 65 46 76 122 133 208 158 55 16 115 18 173 6 66-14 126-46 175-94 26-25 54-62 70-95 7-14 17-38 17-40 0-2-7-3-64-3-35 0-64 1-65 2-1 0-5 5-8 11-37 54-92 91-158 104-20 4-67 3-87-1-65-14-118-49-153-102-4-6-9-12-9-12-1-1-31-2-66-2-55 0-64 1-64 3z m-14 158c-5 1-12 4-16 6-4 3-23 20-56 53-46 46-49 50-54 60-13 29-1 63 28 77 12 6 24 8 35 6 20-4 22-5 75-59 46-45 50-50 55-59 4-10 4-11 4-26 0-15 0-16-5-26-5-10-16-22-26-27-6-3-22-7-28-7-1 0-7 1-12 2z m677 0c-18 4-33 16-41 33-4 8-5 11-5 22-1 16 1 25 9 36 3 4 26 29 52 54 52 52 54 53 74 57 8 1 11 1 21-1 39-9 58-50 40-86-5-9-99-104-109-109-7-4-23-8-30-8-2 0-7 1-11 2z m-345 142c-16 6-30 19-37 35-3 8-3 9-3 76-1 43 0 71 1 76 4 22 20 40 42 46 33 10 68-12 75-46 2-10 2-129 0-141-3-18-16-35-33-43-9-4-11-5-24-5-11 0-17 0-21 2z" horiz-adv-x="1000" />

<glyph glyph-name="volume-off" unicode="&#xe805;" d="M0 551l305 0 345 282 0-965-345 279-229 0z m713-283q0 4 2 6l76 76-76 76q-2 2-2 6t2 6l53 53q2 2 5 2t6-2l76-76 77 76q4 2 6 2t5-2l55-53q2-2 2-6t-2-6l-76-76 76-76q2-4 2-7t-2-5l-55-54q-2-2-5-2t-6 2l-77 78-76-78q-2-2-5-2t-6 2l-53 54q-2 2-2 6z" horiz-adv-x="1000" />

<glyph glyph-name="broken-glass" unicode="&#xe806;" d="M406 152l2-193-128-2c-29 0-51-23-51-51 0-28 24-51 52-51l458 6c28 0 51 23 50 51 0 28-23 51-51 51l-129-2-2 193c218 32 332 163 329 384-1 109-24 198-75 299l-6 11-105-1 2-19 2-20 11-97-72-184 30-112-94 112 59 184-41 96-8 19-8 20-494-6-5-10c-49-102-69-192-68-301 3-222 120-351 342-377z" horiz-adv-x="1000" />

<glyph glyph-name="shopping-cart" unicode="&#xe807;" d="M350-95c-35 4-62 36-62 72 0 40 33 73 74 73 28 0 52-14 66-38 6-11 7-14 7-35 0-18-1-25-5-31-16-31-45-45-80-41z m450 0c-24 3-46 21-57 43-6 15-6 43 0 57 10 22 28 37 53 43 17 4 30 3 48-5 45-20 57-79 23-114-18-20-41-28-67-24z m-526 196c-12 4-22 12-29 23-5 9-10 36-53 285l-47 276-42 1c-40 1-42 1-53 7-30 18-34 57-8 79 14 12 20 13 94 12l69-1 10-7c15-10 19-20 26-57l5-32 353-1c324-1 355-1 361-5 15-8 27-26 27-41 0-11-51-356-53-363-4-9-15-20-24-25-9-4-16-5-298-5-166 0-288 0-289-2-1-1 0-12 3-25l3-23 257 0c160 0 260-1 265-2 37-10 48-60 18-84-5-4-12-8-17-9-11-3-567-4-578-1z m164 292l0 49-74 0c-59 0-75-1-75-3 0-4 14-89 15-93 1-2 16-3 67-2l66 1 1 48z m199 0l0 49-75 0-75 0 0-49 0-50 75 0 75 0 0 50z m207-47c0 2 3 21 6 42 3 21 7 42 7 46l1 8-85 0-85 0 0-49 0-50 78 0c61 0 78 1 78 3z m-480 146l74 0 0 48 0 48-87 0-88 0 1-8c12-69 16-89 16-90 0 0 2 0 5 0 3 1 38 2 79 2z m273 48l0 48-75 0-75 0 0-48 0-48 75 0 75 0 0 48z m229-42c1 4 4 22 6 41 3 19 6 37 6 41l2 8-96 0-96 0 0-48 0-48 89 0 88 0 1 6z" horiz-adv-x="1000" />

<glyph glyph-name="dollar-no-sales" unicode="&#xe808;" d="M452-136c-31 4-68 12-101 22-124 41-226 129-284 247-122 244-19 539 227 657 182 87 400 52 547-89 41-40 73-83 99-135 57-115 66-246 26-368-23-70-60-132-112-186-103-108-253-163-402-148z m-101 230c0 27 1 27 6 27 3 0 12 2 21 4 66 14 110 74 104 143-2 34-14 59-38 81-16 15-36 25-67 34l-24 7-1 77c-1 89-2 83 19 73 20-9 33-28 41-57 1-5 3-9 4-9 5 0 54 8 55 9 0 1-1 8-3 16-7 33-32 66-60 80-12 6-44 15-52 15-4 0-5 2-5 13l0 13-16 0-16 0 0-13 0-13-16-2c-35-6-57-17-77-39-21-24-30-47-30-83 0-13 1-28 3-33 9-41 40-69 98-90l21-7 0-86 1-86-8 2c-23 5-45 24-56 47-3 7-7 20-9 30-5 21-3 20-30 15-31-6-29-5-29-15 0-23 13-56 30-77 20-26 45-39 85-46l17-3 0-28 0-27 16 0 16 0 0 28z m2 76c-1 0-2 37-2 81l0 80 7-2c13-2 33-11 43-18 6-5 12-13 16-22 7-12 7-16 7-34 0-16-1-24-5-34-9-24-31-44-56-50-5-2-10-2-10-1z m-58 237c-29 14-43 35-43 65 0 35 21 62 55 72l12 3 0-74c0-85 2-79-24-66z m437-277c37 14 66 46 82 94 19 57 22 170 5 236-13 53-39 90-75 107-20 10-35 13-61 13-58 0-96-26-122-82-29-62-32-201-7-276 17-50 48-83 91-95 18-5 70-3 87 3z m-74 44c-15 5-34 24-42 41-15 30-20 64-20 135 0 106 15 155 55 176 10 6 15 7 32 7 17 0 21-1 31-7 14-7 31-24 38-38 16-32 24-105 19-178-6-80-20-115-56-133-12-6-17-7-31-7-9 0-21 2-26 4z" horiz-adv-x="1000" />

<glyph glyph-name="send-button" unicode="&#xe809;" d="M18 98c0 89 0 162 1 162 10 1 688 93 686 93-1 1-156 22-344 47-188 25-342 45-342 46-1 0-1 73-1 161l1 162 484-208c266-114 484-208 484-208 0-1-217-94-483-208-266-114-484-208-485-208-1 0-1 72-1 161z" horiz-adv-x="1000" />

<glyph glyph-name="check-double" unicode="&#xe80a;" d="M112 189l-104 104 37 37 36 36 67-66 67-67 211 211 211 211 38-37 37-37-247-248c-136-136-248-247-248-247-1 0-48 46-105 103z m323-41l-59 59 36 36 36 36 23-22 22-22 211 211c184 185 211 212 213 211 1-1 18-18 37-37l35-35-65-66c-36-36-126-127-201-202-75-75-156-157-181-182-25-25-46-46-47-46 0 0-27 27-60 59z" horiz-adv-x="1000" />

<glyph glyph-name="check-single" unicode="&#xe80b;" d="M232 186l-106 107 37 37 37 37 69-68 68-68 216 216 216 216 38-38 39-38-254-254c-139-139-253-253-253-253-1 0-49 48-107 106z" horiz-adv-x="1000" />

<glyph glyph-name="edit" unicode="&#xe80c;" d="M972 463l-56-56-156 155 56 56c18 18 44 20 59 5l101-101c15-15 13-42-4-59z m-237 73l155-155-371-370c-1-2-6-7-13-8 0-1-1-1-2-1l-193-62c-6-2-11-1-15 3-3 3-4 9-3 14l62 194c0 0 1 1 1 2 2 7 6 11 8 13l70 70h-235c-10 0-18 7-18 17 0 9 8 17 18 17h269l267 266z m-263-513l-96 95-26-80 41-41 81 26z m257 452c-6 5-15 5-20 0l-289-289c-6-6-6-15 0-20 5-6 14-6 20 0l289 289c5 5 5 14 0 20z m-18-550c0-10-8-19-19-19h-340l-31-10c-6-2-13-3-19-3-14 0-26 5-36 13h-177c-11 0-19 8-19 19v786c0 11 8 19 19 19h70v-30c0-10 8-18 19-18 10 0 18 8 18 18v30h108v-30c0-10 8-18 19-18 10 0 18 8 18 18v30h94v-30c0-10 8-18 19-18 10 0 18 8 18 18v30h103v-30c0-10 9-18 19-18 11 0 19 8 19 18v30h79c11 0 19-8 19-19v-129l20 19 36 37v73c0 41-33 75-75 75h-79v45c0 11-8 19-19 19-10 0-19-8-19-19v-45h-103v45c0 11-8 19-18 19-11 0-19-8-19-19v-45h-94v45c0 11-8 19-18 19-11 0-19-8-19-19v-45h-108v45c0 11-8 19-18 19-11 0-19-8-19-19v-45h-70c-42 0-75-34-75-75v-786c0-41 33-75 75-75h603c42 0 75 34 75 75v273l-56-57v-216h0z m-146 637h-366c-10 0-18-8-18-17 0-10 8-18 18-18h366c9 0 17 8 17 18 0 9-8 17-17 17z m0-139h-366c-10 0-18-7-18-17 0-9 8-17 18-17h366c9 0 17 8 17 17 0 10-8 17-17 17z" horiz-adv-x="1000" />

<glyph glyph-name="remove-circle" unicode="&#xe80d;" d="M500 850c-275 0-500-225-500-500s225-500 500-500 500 225 500 500-225 500-500 500z m250-680l-70-70-180 180-180-180-70 70 180 180-180 180 70 70 180-180 180 180 70-70-180-180 180-180z" horiz-adv-x="1000" />

<glyph glyph-name="minus" unicode="&#xe80e;" d="M481-135c-48 2-73 6-121 19-22 6-60 22-86 35-129 68-224 195-252 335-8 41-8 49-8 97 0 47 0 56 8 93 28 149 129 279 267 345 12 6 23 11 26 12 37 14 48 17 77 24 40 9 55 10 106 10 40 1 48 0 67-3 12-1 24-4 28-4 3-1 10-3 16-4 26-6 65-19 90-31 134-61 233-179 270-319 44-168-4-344-127-467-74-74-168-121-272-137-18-3-64-7-76-6-3 0-9 0-13 1z m63 60c120 14 225 73 296 168 48 63 75 133 84 213 3 26 2 77-1 102-11 80-43 152-94 214-14 17-45 48-63 62-55 45-120 74-190 87-29 6-43 7-77 7-51 0-87-6-133-21-66-22-120-55-170-104-69-70-110-155-123-255-2-19-2-75 0-95 10-75 34-138 75-198 27-38 68-79 107-106 53-38 123-65 187-73 9-1 19-2 21-2 12-2 64-1 81 1z m-293 399c-6 3-9 6-12 11-4 6-4 7-4 16 1 12 6 20 15 25l7 3 235 0c157 1 237 0 242-1 9-2 16-8 20-16 4-9 5-13 1-22-3-8-9-14-17-17-6-2-24-2-243-2l-237 0-7 3z" horiz-adv-x="1000" />

<glyph glyph-name="clock" unicode="&#xe80f;" d="M465-137c-2 0-11 1-19 2-67 7-140 34-197 70-97 62-169 157-202 265-34 110-29 228 16 334 31 75 80 140 145 192 16 12 43 31 60 40 5 3 13 7 17 10 16 9 51 23 81 32 11 4 36 10 52 13 141 24 283-15 392-110 63-55 114-132 140-209 6-17 11-36 13-43 9-48 12-74 12-112 1-151-66-290-183-383-64-51-141-84-225-97-15-3-30-4-60-4-21 0-41 0-42 0z m92 35c65 9 117 28 172 61 87 53 155 138 190 236 25 71 31 151 19 226-14 80-48 154-99 215-16 18-46 48-63 62-85 69-194 104-301 97-66-5-125-21-180-51-26-14-34-19-57-36-126-94-195-249-179-406 5-60 20-111 48-165 67-132 200-225 345-240 9-1 18-2 20-2 5-1 70 1 85 3z m-64 81c-3 1-5 4-7 7-3 7-3 23 0 29 6 12 21 13 27 3 2-4 3-8 3-18 0-13 0-13-5-19-6-5-12-6-18-2z m-250 106c-8 9-7 15 3 27 9 10 15 13 22 11 8-1 12-7 12-15 0-7-1-8-10-17-9-9-10-10-16-10-6 0-8 1-11 4z m487 6c-9 9-10 10-10 17 0 10 6 15 16 15 6 0 7 0 16-10 9-9 10-11 10-17 0-9-6-15-15-15-7 0-8 1-17 10z m-244 193c-19 6-34 17-42 35l-6 12-59 0-60 1-4 5c-8 8-6 19 4 24 2 1 22 2 61 2l58 0 5 11c7 13 19 26 32 31l9 4 0 83c0 85 0 85 6 92 5 6 15 5 21-1l5-4 0-85 0-84 10-5c40-18 50-71 19-103-17-17-38-23-59-18z m28 34c7 3 15 13 17 22 2 13-2 26-13 33-15 10-34 7-44-9-6-9-7-23-1-33 8-14 25-20 41-13z m-369 14c-6 3-9 8-9 15 0 6 1 8 5 11 5 4 6 5 19 5 12 0 13-1 18-5 8-8 6-22-5-26-5-1-23-2-28 0z m681 1c-5 2-10 12-9 17 1 2 3 6 6 8 4 5 5 5 18 5 15 0 20-3 23-12 1-4 1-6-1-11-4-7-8-9-22-9-6 0-13 1-15 2z m-569 239c-7 5-18 18-19 23-2 10 8 20 18 18 4-1 8-4 15-11 7-8 9-10 9-15 0-7-2-12-8-15-5-3-10-3-15 0z m471 0c-6 4-9 12-8 18 2 5 18 22 23 23 10 3 19-5 19-16 0-6-1-7-9-16-12-12-17-14-25-9z m-232 98c-5 0-11 7-12 13-1 9 0 23 4 28 6 8 17 8 24 0 3-3 4-5 4-18 0-13-1-14-5-18-4-5-9-7-15-5z" horiz-adv-x="1000" />

<glyph glyph-name="cancel" unicode="&#xe811;" d="M452 194q18-18 18-43t-18-43q-18-16-43-16t-43 16l-132 152-132-152q-18-16-43-16t-43 16q-16 18-16 43t16 43l138 156-138 158q-16 18-16 43t16 43q18 16 43 16t43-16l132-152 132 152q18 16 43 16t43-16q18-18 18-43t-18-43l-138-158z" horiz-adv-x="470" />

<glyph glyph-name="email" unicode="&#xe812;" d="M999 464c0 2 0 4-1 5-1 6-5 11-10 14l-143 100v107c0 14-11 25-25 25h-165l-140 98c-9 6-21 6-29 0l-141-98h-164c-15 0-26-11-26-25v-106l-144-99c-7-5-11-13-11-21 0 0 0 0 0 0l1-556c0-6 3-13 7-18 5-5 12-7 18-7 0 0 0 0 0 0l948 1c15 0 26 12 26 26l-1 554z m-154 57l82-57-82-57v114z m-345 239l65-45h-130l65 45z m-294-96h588v-293l-197-137-81 62c0 0 0 1 0 1-9 6-22 7-31-1l-81-62-198 136v294z m-51-142v-117l-84 59 84 58z m-104-107l310-214-309-240-1 454z m50-481l399 310 398-309-797-1z m538 267l309 215 1-455-310 240z m34 361h-346c-14 0-26-12-26-26s12-26 26-26h346c15 0 26 12 26 26s-11 26-26 26z m0-134h-346c-14 0-26-11-26-25 0-14 12-26 26-26h346c15 0 26 12 26 26 0 14-11 25-26 25z" horiz-adv-x="1000" />

<glyph glyph-name="thumbs-down" unicode="&#xe813;" d="M911 177c-39-10-130-10-265-13 7-30 8-56 8-103 0-112-82-211-154-211-51 0-93 42-94 93 0 63-20 172-125 227-7 4-29 15-33 16l2 2c-16-15-39-25-62-25l-94 0c-52 0-94 42-94 93l0 500c0 52 42 94 94 94l94 0c37 0 68-22 83-54 0 0 1 0 1 0 2 1 5 2 8 2 0 1 1 1 1 1 18 4 53 13 127 30 16 3 100 21 187 21l170 0c53 0 90-20 112-60 1-1 8-15 14-34 4-14 6-34 1-55 33-23 44-58 51-80 12-38 8-66 0-86 19-17 35-45 42-86 4-26-1-52-12-74 17-20 25-45 26-68l1-7c0-4 0-6 0-15 0-40-27-90-89-108z m-692 579c0 18-14 32-31 32l-94 0c-17 0-31-14-31-32l0-500c0-17 14-31 31-31l94 0c17 0 31 14 31 31l0 500z m718-452c-1 16-7 46-62 46-47 0-62 0-62 0-9 0-16 7-16 16 0 8 7 15 16 15 0 0 13 0 60 0 47 0 53 39 50 58-4 23-15 67-67 67-53 0-75 0-75 0-8 0-15 7-15 16 0 9 7 16 15 16 0 0 37 0 62 0 53 0 48 40 40 64-10 31-16 61-82 61-23 0-51 0-51 0-9 0-16 7-16 15 0 9 7 16 16 16 0 0 22 0 49 0 34 0 36 32 32 44-4 12-8 22-9 22-9 17-24 28-57 28l-170 0c-86 0-171-20-173-20-130-30-137-33-145-35 0 0-27-4-27-27l0-432c0-15 9-28 25-33 2 0 4-1 6-2 143-59 187-189 188-295 0-15 12-32 31-32 33 0 91 67 91 149 0 74-3 87-28 164 312 0 310 5 337 12 35 10 38 38 38 48 0 10-1 9-1 19z m-796 359c-26 0-47 21-47 46 0 26 21 47 47 47 26 0 47-21 47-47 0-25-21-46-47-46z m0 62c-9 0-16-7-16-16 0-8 7-15 16-15 8 0 15 7 15 15 0 9-7 16-15 16z" horiz-adv-x="1000" />

<glyph glyph-name="thumbs-up" unicode="&#xe814;" d="M911 523c-39 10-130 10-265 13 7 30 8 56 8 103 0 112-82 211-154 211-51 0-93-42-94-93 0-63-20-172-125-227-7-4-29-15-33-16l2-1c-16 14-39 25-62 25h-94c-52 0-94-43-94-94v-500c0-52 42-94 94-94h94c37 0 68 22 83 54 0 0 1 0 1 0 2-1 5-2 8-2 0-1 1-1 1-1 18-4 53-13 127-30 16-3 100-21 187-21h170c53 0 90 20 112 60 1 1 8 15 14 34 4 14 6 34 1 55 33 23 44 58 51 81 12 37 8 65 0 85 19 18 35 45 42 86 4 26-1 52-12 74 17 20 25 45 26 68l1 7c0 4 0 6 0 15 0 40-27 90-89 108z m-692-579c0-18-14-32-31-32h-94c-17 0-31 14-31 32v500c0 17 14 31 31 31h94c17 0 31-14 31-31v-500z m718 452c-1-16-7-46-62-46-47 0-62 0-62 0-9 0-16-7-16-16s7-15 16-15c0 0 13 0 60 0s53-39 50-58c-4-23-15-67-67-67-53 0-75 0-75 0-8 0-15-7-15-16 0-8 7-15 15-15 0 0 37 0 62 0 53 0 48-41 40-65-10-31-16-60-82-60-23 0-51 0-51 0-9 0-16-7-16-16 0-9 7-16 16-16 0 0 22 0 49 0 34 0 36-32 32-44-4-12-8-22-9-22-9-17-24-28-57-28h-170c-86 0-171 20-173 20-130 30-137 33-145 35 0 0-27 4-27 27l0 432c0 15 9 28 25 33 2 1 4 1 6 2 143 59 187 189 188 295 0 15 12 32 31 32 33 0 91-67 91-149 0-74-3-87-28-164 312 0 310-4 337-12 35-9 38-38 38-48 0-10-1-9-1-19z m-796-358c-26 0-47-21-47-47s21-47 47-47 47 21 47 47-21 47-47 47z m0-63c-9 0-16 7-16 16s7 15 16 15 15-7 15-15-7-16-15-16z" horiz-adv-x="1000" />

<glyph glyph-name="thumbs-down-flipped" unicode="&#xe816;" d="M89 177c39-10 131-10 265-13-6-30-8-56-8-103 0-112 82-211 154-211 51 0 93 42 94 93 0 63 20 172 125 227 7 4 29 15 33 16l-2 2c16-15 39-25 63-25l93 0c52 0 94 42 94 93l0 500c0 52-42 94-94 94l-93 0c-38 0-69-22-84-54 0 0-1 0-1 0-2 1-5 2-8 2 0 1-1 1-1 1-18 4-53 13-127 30-16 3-100 21-187 21l-170 0c-52 0-90-20-112-60-1-1-8-15-14-34-4-14-6-34 0-55-34-23-45-58-52-80-12-38-8-66 0-86-19-17-35-45-42-86-4-26 1-52 13-74-18-20-26-45-27-68l-1-7c0-4 0-6 0-15 0-40 27-90 89-108z m692 579c0 18 14 32 32 32l93 0c18 0 32-14 32-32l0-500c0-17-14-31-32-31l-93 0c-18 0-32 14-32 31l0 500z m-718-452c1 16 7 46 62 46 47 0 63 0 63 0 8 0 15 7 15 16 0 8-7 15-15 15 0 0-14 0-61 0-47 0-53 39-50 58 4 23 15 67 68 67 52 0 74 0 74 0 8 0 15 7 15 16 0 9-7 16-15 16 0 0-37 0-62 0-52 0-48 40-40 64 10 31 16 61 82 61 23 0 51 0 51 0 9 0 16 7 16 15 0 9-7 16-16 16 0 0-21 0-49 0-34 0-36 32-32 44 4 12 9 22 9 22 9 17 24 28 57 28l170 0c86 0 171-20 174-20 129-30 136-33 144-35 0 0 27-4 27-27l0-432c0-15-9-28-25-33-2 0-4-1-6-2-143-59-186-189-188-295 0-15-11-32-31-32-33 0-91 67-91 149 0 74 3 87 29 164-313 0-311 5-338 12-35 10-37 38-37 48 0 10 0 9 0 19z m796 359c26 0 47 21 47 46 0 26-21 47-47 47-25 0-46-21-46-47 0-25 21-46 46-46z m0 62c9 0 16-7 16-16 0-8-7-15-16-15-8 0-15 7-15 15 0 9 7 16 15 16z" horiz-adv-x="1000" />

<glyph glyph-name="logo" unicode="&#xe81e;" d="M324 352c165 165 304 300 308 300 5 0 7-25 7-109l0-109-191-191-191-191-116 0-117 0 300 300z m353 4c172 173 305 303 307 299 3-3 5-54 5-113l0-108-193-191-193-191-114 0-115 0 303 304z m172-173c72 72 132 129 135 128 3-2 5-61 5-131l0-128-136 0-135 0 131 131z" horiz-adv-x="1000" />

<glyph glyph-name="paper-plane" unicode="&#xe820;" d="M999 669c0 0 0 0 0 0 0 2-1 4-2 6 0 0 0 0 0 0 0 0 0 0 0 0-1 2-2 3-4 4 0 1 0 1-1 1-1 1-2 1-4 2-1 0-1 0-2 0-1 1-2 1-3 1h0c0 0-1 0-1 0 0 0 0 0-1 0 0 0 0 0 0 0-1 0-1 0-1 0l-967-200c-7-2-12-7-13-14s3-14 9-17l277-146 48-270c0 0 0 0 0 0 0-2 0-3 0-4 0-1 0-1 1-2 0-2 1-3 1-5 1 0 1 0 1 0 0 0 0-1 0-1 0 0 0 0 1-1 1 0 1-1 2-2 0 0 1 0 1-1 0 0 0 0 0 0 1-1 3-1 4-2 0 0 1 0 1 0 1 0 3-1 5-1 0 0 0 0 0 0h0c0 0 0 0 0 0 0 0 0 0 0 0 0 0 0 0 1 0 4 0 8 2 12 5l184 123 193-125c3-2 6-3 9-3 2 0 4 0 5 1 5 2 9 5 11 10l232 630c1 2 2 5 2 8 0 1 0 2-1 3z m-192-112l-400-293c0-1-1-1-1-2-1 0-1 0-1-1 0 0-1 0-1-1 0 0-1-1-1-1 0-1-1-2-1-3 0 0-1-1-1-1 0 0 0 0 0 0l-45-149-37 202 488 249z m-426-483l46 150 70-46 21-13-69-46-68-45z" horiz-adv-x="1000" />

<glyph glyph-name="no-mobile" unicode="&#xe823;" d="M270-102c-10 2-17 6-24 14-9 10-11 17-11 44l0 23 27 24c15 14 35 33 46 43l20 17 188 1 189 0 1 174 1 174 38 35 38 35 0-276 1-276-5-10c-6-12-16-20-30-22-11-2-468-2-479 0z m253 44c9 2 20 12 25 22 6 11 6 29-1 39-6 10-10 14-20 19-10 4-25 4-35 0-17-8-28-30-24-48 6-25 30-40 55-32z m-407 56c-9 2-16 6-23 14-7 8-9 13-12 25-2 8 1 25 6 33 3 3 37 35 90 84 2 2 17 15 31 29l27 24 1 286 0 285 6 8c3 5 9 11 13 14l8 5 247 0 246 0 8-5c4-3 10-9 13-13l6-8 1-31c0-16 0-31 1-32 1-3 1-3 37 30 42 39 45 42 56 45 30 10 61-13 61-45 0-23 0-23-82-97-10-10-30-28-44-41-14-12-43-39-65-60-23-20-42-38-43-39-7-7-93-85-102-93-6-6-27-25-46-43-20-18-55-50-78-71-22-21-63-58-89-82-27-25-57-53-68-62-10-10-30-28-43-40-33-30-106-98-116-107-5-4-11-9-14-10-7-4-25-5-33-3z m208 291c5 4 17 16 28 26 11 10 32 29 46 42 14 13 34 31 44 41 36 32 115 105 149 137 19 17 52 47 74 68l41 37 0 44 0 44-196 0-196-1 0-223c0-122 0-223 0-223 1 0 5 4 10 8z" horiz-adv-x="1000" />

<glyph glyph-name="open-book" unicode="&#xe84a;" d="M153 732c0 0 0 0 0 0-10 0-18-4-25-10-7-7-11-16-11-26v-536c0-20 16-36 36-36 83 0 223-18 319-118v561c0 7-1 13-5 18-79 128-230 147-314 147z m730-572v536c0 10-4 19-11 26-6 6-15 10-25 10 0 0 0 0 0 0-83 0-235-19-314-147-3-5-5-11-5-18v-561c96 100 236 118 319 118 20 0 36 16 36 36z m81 448h-26v-448c0-51-41-92-91-92-71 0-187-14-270-92 143 35 294 12 379-7 11-3 22 0 31 7 8 7 13 17 13 28v569c0 19-16 35-36 35z m-902-448v448h-26c-20 0-36-16-36-35v-569c0-11 5-21 13-28 9-7 20-10 31-7 86 19 236 42 379 7-83 78-199 92-270 92-50 0-91 41-91 92z" horiz-adv-x="1000" />

<glyph glyph-name="play-button" unicode="&#xe84b;" d="M859 370l-691 476c-7 5-16 5-24 1-8-4-13-12-13-21v-952c0-9 5-17 13-21 3-2 7-3 11-3 5 0 9 1 13 4l691 476c6 5 10 12 10 20s-4 15-10 20z" horiz-adv-x="1000" />

<glyph glyph-name="box" unicode="&#xe84c;" d="M46-62c-13 20-17 58-17 179l0 154 91 244c50 134 96 250 102 258 8 10 78 14 277 14 239 0 267-2 282-20 9-11 55-121 103-244l86-225 0-175c0-144-3-178-18-192-15-16-72-18-453-18l-435 0-18 25z m612 195c13 12 20 34 20 64 0 69 23 86 114 86 72 0 77 1 76 25 0 14-32 108-70 210l-70 185-225 3-225 3-69-188c-38-103-70-197-71-210-2-21 5-23 75-26 96-4 118-20 118-84 0-78 17-86 172-86 109 0 138 3 155 18z" horiz-adv-x="1000" />

<glyph glyph-name="dialog" unicode="&#xe84d;" d="M404 634c-223 0-404-139-404-311 0-84 44-161 114-217-4-57-17-127-57-164 79 0 160 49 211 88 43-11 88-18 136-18 223 0 404 139 404 311 0 172-181 311-404 311z m537-341c34 45 54 98 54 154 0 172-181 311-404 311-99 0-189-27-259-72 33 7 68 10 103 10 241 0 435-153 435-342 0-74-30-143-81-199 51-39 132-89 211-89-56 54-60 172-59 227z" horiz-adv-x="1000" />

<glyph glyph-name="attach" unicode="&#xe84e;" d="M159-40c-91 45-132 152-94 250 8 22 128 156 265 299 249 257 251 259 326 259 67 0 86-10 161-81 150-140 172-231 80-340-129-154-395-410-416-402-49 19-16 69 181 271 244 251 247 259 113 392-50 50-103 91-117 91-15 0-138-115-275-257-194-200-249-266-248-302 0-25 5-53 12-64 22-32 90-60 122-50 43 14 413 416 401 436-23 37-65 8-214-146-87-89-166-159-176-156-55 18-22 75 137 235 141 141 176 168 221 168 67 0 109-46 109-117 0-47-29-86-191-260-243-259-284-282-397-226z" horiz-adv-x="1000" />
</font>
</defs>
</svg>
